<svg xmlns="http://www.w3.org/2000/svg" xmlns:xlink="http://www.w3.org/1999/xlink" width="500" zoomAndPan="magnify" viewBox="0 0 375 374.999991" height="500" preserveAspectRatio="xMidYMid meet" version="1.0"><defs><clipPath id="id1"><path d="M 83.964844 83.964844 L 227 83.964844 L 227 245 L 83.964844 245 Z M 83.964844 83.964844 " clip-rule="nonzero"/></clipPath><clipPath id="id2"><path d="M 148 130 L 290.964844 130 L 290.964844 290.964844 L 148 290.964844 Z M 148 130 " clip-rule="nonzero"/></clipPath></defs><path fill="rgb(6.269836%, 5.879211%, 5.099487%)" d="M 223.273438 177.117188 L 187.464844 177.117188 C 185.566406 177.117188 184.015625 175.566406 184.015625 173.667969 L 184.015625 133.089844 L 151.660156 197.816406 L 187.464844 197.816406 C 189.367188 197.816406 190.917969 199.367188 190.917969 201.265625 L 190.917969 241.84375 L 223.273438 177.117188 " fill-opacity="1" fill-rule="nonzero"/><g clip-path="url(#id1)"><path fill="rgb(6.269836%, 5.879211%, 5.099487%)" d="M 90.867188 187.464844 C 90.867188 134.191406 134.191406 90.867188 187.464844 90.867188 C 199.878906 90.867188 212.035156 93.171875 223.449219 97.804688 C 223.652344 97.902344 223.894531 97.96875 224.109375 98.074219 L 224.753906 96.484375 L 226.722656 91.660156 C 214.242188 86.554688 201.023438 83.964844 187.464844 83.964844 C 130.40625 83.964844 83.964844 130.40625 83.964844 187.464844 C 83.964844 208.058594 89.894531 227.695312 101.148438 244.59375 C 101.417969 244.257812 101.726562 243.90625 102.078125 243.570312 C 103.425781 242.222656 104.910156 241.074219 106.527344 240.214844 C 96.242188 224.554688 90.867188 206.480469 90.867188 187.464844 " fill-opacity="1" fill-rule="nonzero"/></g><g clip-path="url(#id2)"><path fill="rgb(6.269836%, 5.879211%, 5.099487%)" d="M 273.785156 130.339844 C 273.515625 130.675781 273.191406 131.027344 272.855469 131.363281 C 271.507812 132.710938 270.023438 133.855469 268.40625 134.71875 C 278.6875 150.378906 284.066406 168.492188 284.066406 187.464844 C 284.066406 240.738281 240.738281 284.066406 187.464844 284.066406 C 175.015625 284.066406 162.898438 281.761719 151.484375 277.125 C 151.28125 277.058594 151.039062 276.992188 150.824219 276.882812 L 150.203125 278.40625 L 148.207031 283.269531 C 160.660156 288.378906 173.867188 290.964844 187.464844 290.964844 C 244.527344 290.964844 290.964844 244.527344 290.964844 187.464844 C 290.964844 166.875 285.035156 147.238281 273.785156 130.339844 " fill-opacity="1" fill-rule="nonzero"/></g><path fill="rgb(6.269836%, 5.879211%, 5.099487%)" d="M 136.242188 258.21875 L 126.484375 248.449219 C 121.09375 243.070312 112.347656 243.070312 106.957031 248.449219 C 101.578125 253.839844 101.578125 262.585938 106.957031 267.976562 L 116.714844 277.730469 L 119.167969 275.292969 L 131.351562 287.488281 L 136.242188 282.609375 L 124.03125 270.414062 L 128.925781 265.535156 L 141.121094 277.730469 L 146 272.855469 L 133.800781 260.65625 L 136.242188 258.21875 " fill-opacity="1" fill-rule="nonzero"/><path fill="rgb(6.269836%, 5.879211%, 5.099487%)" d="M 238.691406 116.714844 L 248.449219 126.484375 C 253.839844 131.863281 262.585938 131.863281 267.976562 126.484375 C 273.367188 121.09375 273.367188 112.347656 267.976562 106.957031 L 258.21875 97.199219 L 255.765625 99.640625 L 243.582031 87.441406 L 238.691406 92.320312 L 250.898438 104.519531 L 246.007812 109.394531 L 233.8125 97.199219 L 228.933594 102.078125 L 241.128906 114.273438 L 238.691406 116.714844 " fill-opacity="1" fill-rule="nonzero"/></svg>